<?xml version="1.0" encoding="UTF-8" standalone="no"?>
<!-- Created with Inkscape (http://www.inkscape.org/) -->

<svg
   version="1.1"
   width="218.59747"
   height="244.87088"
   id="svg2985"
   xml:space="preserve"
   sodipodi:docname="snap.svg"
   inkscape:version="1.1.1 (3bf5ae0d25, 2021-09-20)"
   xmlns:inkscape="http://www.inkscape.org/namespaces/inkscape"
   xmlns:sodipodi="http://sodipodi.sourceforge.net/DTD/sodipodi-0.dtd"
   xmlns="http://www.w3.org/2000/svg"
   xmlns:svg="http://www.w3.org/2000/svg"
   xmlns:rdf="http://www.w3.org/1999/02/22-rdf-syntax-ns#"
   xmlns:cc="http://creativecommons.org/ns#"
   xmlns:dc="http://purl.org/dc/elements/1.1/"><sodipodi:namedview
     id="namedview171"
     pagecolor="#ffffff"
     bordercolor="#666666"
     borderopacity="1.0"
     inkscape:pageshadow="2"
     inkscape:pageopacity="0.0"
     inkscape:pagecheckerboard="0"
     showgrid="false"
     inkscape:zoom="1.4064466"
     inkscape:cx="250.98714"
     inkscape:cy="175.26439"
     inkscape:window-width="1920"
     inkscape:window-height="1004"
     inkscape:window-x="0"
     inkscape:window-y="0"
     inkscape:window-maximized="1"
     inkscape:current-layer="svg2985"
     fit-margin-top="5"
     fit-margin-left="5"
     fit-margin-right="5"
     fit-margin-bottom="5" /><metadata
     id="metadata2991"><rdf:RDF><cc:Work
         rdf:about=""><dc:format>image/svg+xml</dc:format><dc:type
           rdf:resource="http://purl.org/dc/dcmitype/StillImage" /></cc:Work></rdf:RDF></metadata><defs
     id="defs2989" /><g
     transform="translate(-317.3747,-320.74521)"
     id="layer1"
     style="display:none"><g
       transform="matrix(3.3155729,0,0,-3.3155729,-785.63235,1589.1894)"
       id="g3792"><g
         transform="translate(329.1581,305.8217)"
         id="g3179"><path
           d="m 0,0 h 0.824 c 0.559,-0.006 0.758,0.02 0.944,0.153 0.219,0.153 0.306,0.426 0.306,0.692 0,0.172 -0.04,0.352 -0.14,0.498 C 1.688,1.688 1.124,1.688 0.738,1.688 H 0 Z m 0,-0.564 v -1.629 c 0,-0.086 -0.026,-0.299 -0.312,-0.299 -0.299,0 -0.326,0.199 -0.326,0.299 v 4.127 c 0,0.213 0.08,0.313 0.312,0.313 H 0.937 C 1.263,2.247 1.608,2.24 1.908,2.127 2.433,1.928 2.705,1.443 2.705,0.845 2.705,0.698 2.692,0.572 2.665,0.452 2.606,0.18 2.486,-0.053 2.267,-0.239 1.894,-0.551 1.496,-0.564 1.064,-0.564 Z"
           id="path3181"
           style="fill:#013021;fill-opacity:1;fill-rule:nonzero;stroke:none" /></g><g
         transform="translate(335.0282,303.6217)"
         id="g3183"><path
           d="m 0,0 c -0.007,-0.093 -0.02,-0.193 -0.146,-0.259 -0.087,-0.04 -0.213,-0.04 -0.306,0 -0.14,0.073 -0.14,0.18 -0.14,0.445 -0.286,-0.379 -0.571,-0.505 -1.056,-0.505 -0.16,0 -0.585,0.013 -0.884,0.339 -0.286,0.319 -0.286,0.745 -0.286,1.057 v 1.847 c 0,0.087 0.026,0.306 0.306,0.306 0.279,0 0.312,-0.212 0.312,-0.299 V 1.276 c 0,-0.445 0.02,-0.631 0.106,-0.791 0.153,-0.279 0.466,-0.279 0.545,-0.279 0.432,0 0.798,0.259 0.898,0.705 0.039,0.166 0.033,0.312 0.033,0.558 v 1.455 c 0,0.087 0.026,0.306 0.306,0.306 C -0.027,3.23 0,3.011 0,2.924 Z"
           id="path3185"
           style="fill:#013021;fill-opacity:1;fill-rule:nonzero;stroke:none" /></g><g
         transform="translate(335.8597,306.2939)"
         id="g3187"><path
           d="m 0,0 h -0.352 c -0.073,0 -0.253,0.026 -0.253,0.259 0,0.239 0.18,0.26 0.253,0.26 h 0.358 v 0.777 c 0,0.086 0.027,0.286 0.3,0.286 0.286,0 0.306,-0.193 0.306,-0.286 V 0.519 h 0.411 c 0.08,0 0.253,-0.021 0.253,-0.26 C 1.276,0.026 1.096,0 1.023,0 H 0.612 v -1.688 c 0,-0.399 0.006,-0.446 0.026,-0.525 0.047,-0.193 0.173,-0.226 0.352,-0.24 0.16,-0.006 0.326,-0.019 0.326,-0.252 0,-0.233 -0.213,-0.259 -0.392,-0.259 C 0,-2.964 0,-2.466 0,-1.948 Z"
           id="path3189"
           style="fill:#013021;fill-opacity:1;fill-rule:nonzero;stroke:none" /></g><g
         transform="translate(338.0669,306.2939)"
         id="g3191"><path
           d="m 0,0 h -0.352 c -0.073,0 -0.253,0.026 -0.253,0.259 0,0.239 0.18,0.26 0.253,0.26 h 0.358 v 0.777 c 0,0.086 0.027,0.286 0.3,0.286 0.286,0 0.306,-0.193 0.306,-0.286 V 0.519 h 0.411 c 0.08,0 0.253,-0.021 0.253,-0.26 C 1.276,0.026 1.096,0 1.023,0 H 0.612 v -1.688 c 0,-0.399 0.006,-0.446 0.026,-0.525 0.047,-0.193 0.173,-0.226 0.352,-0.24 0.16,-0.006 0.326,-0.019 0.326,-0.252 0,-0.233 -0.213,-0.259 -0.392,-0.259 C 0,-2.964 0,-2.466 0,-1.948 Z"
           id="path3193"
           style="fill:#013021;fill-opacity:1;fill-rule:nonzero;stroke:none" /></g><g
         transform="translate(340.5664,303.6287)"
         id="g3195"><path
           d="m 0,0 c 0,-0.053 -0.013,-0.106 -0.033,-0.146 -0.027,-0.06 -0.106,-0.153 -0.266,-0.153 -0.18,0 -0.306,0.113 -0.306,0.299 v 2.931 c 0,0.08 0.027,0.292 0.299,0.292 C -0.026,3.223 0,3.011 0,2.931 Z m -0.306,4.473 c 0.193,0 0.373,-0.133 0.373,-0.379 0,-0.226 -0.147,-0.366 -0.373,-0.366 -0.239,0 -0.372,0.16 -0.372,0.366 0,0.239 0.166,0.379 0.372,0.379"
           id="path3197"
           style="fill:#013021;fill-opacity:1;fill-rule:nonzero;stroke:none" /></g><g
         transform="translate(341.2178,306.5601)"
         id="g3199"><path
           d="m 0,0 c 0,0.093 0.02,0.193 0.146,0.258 0.087,0.041 0.226,0.041 0.306,0 0.146,-0.072 0.146,-0.172 0.146,-0.438 0.273,0.366 0.618,0.499 1.07,0.499 0.359,0 0.698,-0.107 0.917,-0.379 0.226,-0.286 0.233,-0.638 0.233,-0.991 v -1.88 c 0,-0.087 -0.026,-0.299 -0.306,-0.299 -0.053,0 -0.106,0.013 -0.159,0.032 -0.126,0.067 -0.146,0.174 -0.146,0.267 v 1.568 c 0,0.352 -0.013,0.432 -0.013,0.492 0,0.18 -0.04,0.665 -0.659,0.665 -0.604,0 -0.824,-0.452 -0.89,-0.758 C 0.605,-1.137 0.612,-1.31 0.612,-1.489 v -1.442 c 0,-0.087 -0.027,-0.299 -0.306,-0.299 -0.053,0 -0.107,0.013 -0.16,0.032 C 0.02,-3.131 0,-3.031 0,-2.931 Z"
           id="path3201"
           style="fill:#013021;fill-opacity:1;fill-rule:nonzero;stroke:none" /></g><g
         transform="translate(345.9444,306.3537)"
         id="g3203"><path
           d="m 0,0 c -0.219,0 -0.512,-0.066 -0.718,-0.359 -0.159,-0.232 -0.213,-0.545 -0.213,-0.817 0,-0.3 0.054,-0.625 0.213,-0.838 0.133,-0.186 0.366,-0.326 0.665,-0.326 0.305,0 0.585,0.153 0.731,0.366 0.18,0.259 0.193,0.691 0.193,0.844 0,0.173 0,1.13 -0.871,1.13 m 1.429,-2.532 c 0,-0.725 -0.086,-1.077 -0.352,-1.323 -0.233,-0.213 -0.632,-0.326 -1.09,-0.326 -0.386,0 -0.738,0.08 -0.971,0.253 -0.232,0.166 -0.392,0.452 -0.392,0.631 0,0.207 0.18,0.293 0.319,0.293 0.199,0 0.266,-0.14 0.319,-0.253 0.06,-0.12 0.087,-0.173 0.133,-0.226 0.146,-0.166 0.479,-0.186 0.632,-0.186 0.791,0 0.817,0.505 0.831,0.964 l 0.006,0.306 c -0.153,-0.18 -0.399,-0.465 -1.003,-0.465 -0.997,0 -1.416,0.764 -1.416,1.641 0,0.233 0.026,0.459 0.086,0.685 0.193,0.658 0.678,1.063 1.403,1.063 0.245,0 0.418,-0.046 0.544,-0.099 0.253,-0.113 0.34,-0.24 0.413,-0.36 0.006,0.22 0.006,0.253 0.033,0.306 0.027,0.047 0.093,0.12 0.233,0.12 0.252,0 0.272,-0.179 0.272,-0.252 z"
           id="path3205"
           style="fill:#013021;fill-opacity:1;fill-rule:nonzero;stroke:none" /></g><g
         transform="translate(353.2037,305.4894)"
         id="g3207"><path
           d="m 0,0 h -2.426 v -1.854 c 0,-0.087 -0.026,-0.306 -0.312,-0.306 -0.053,0 -0.107,0.013 -0.153,0.04 -0.133,0.066 -0.153,0.166 -0.153,0.266 v 4.167 c 0,0.087 0.027,0.306 0.312,0.306 0.054,0 0.107,-0.014 0.16,-0.04 0.126,-0.066 0.146,-0.166 0.146,-0.266 V 0.552 H 0 V 2.313 C 0.007,2.366 0.014,2.42 0.034,2.466 0.053,2.506 0.133,2.619 0.312,2.619 0.598,2.619 0.625,2.4 0.625,2.313 V -1.854 C 0.625,-1.907 0.612,-1.961 0.592,-2.007 0.565,-2.067 0.479,-2.16 0.312,-2.16 0.034,-2.16 0,-1.941 0,-1.854 Z"
           id="path3209"
           style="fill:#013021;fill-opacity:1;fill-rule:nonzero;stroke:none" /></g><g
         transform="translate(356.774,305.4231)"
         id="g3211"><path
           d="m 0,0 c -0.026,0.439 -0.266,0.924 -0.897,0.924 -0.14,0 -0.412,-0.013 -0.645,-0.22 C -1.808,0.472 -1.868,0.153 -1.901,0 Z m -1.908,-0.498 c 0.014,-0.299 0.08,-0.566 0.26,-0.785 0.226,-0.279 0.498,-0.325 0.764,-0.325 0.525,0 0.711,0.272 0.831,0.458 0.106,0.18 0.14,0.246 0.286,0.246 0.146,0 0.345,-0.086 0.345,-0.279 0,-0.027 0,-0.047 -0.006,-0.066 C 0.545,-1.376 0.432,-1.522 0.359,-1.602 -0.099,-2.12 -0.698,-2.12 -0.884,-2.12 c -0.432,0 -0.871,0.086 -1.21,0.465 -0.298,0.339 -0.438,0.817 -0.438,1.296 0,0.838 0.452,1.815 1.628,1.815 0.146,0 0.293,-0.013 0.432,-0.047 0.299,-0.073 0.559,-0.219 0.764,-0.498 0.22,-0.306 0.333,-0.738 0.333,-1.11 0,-0.279 -0.213,-0.299 -0.299,-0.299 z"
           id="path3213"
           style="fill:#013021;fill-opacity:1;fill-rule:nonzero;stroke:none" /></g><g
         transform="translate(359.188,304.9447)"
         id="g3215"><path
           d="m 0,0 c -0.113,-0.02 -0.246,-0.053 -0.339,-0.086 -0.1,-0.034 -0.399,-0.133 -0.399,-0.505 0,-0.366 0.286,-0.552 0.618,-0.552 0.379,0 0.632,0.219 0.731,0.352 0.173,0.239 0.18,0.552 0.186,0.997 C 0.671,0.153 0.625,0.139 0.346,0.08 Z M 1.362,-1.349 C 1.356,-1.422 1.342,-1.615 1.096,-1.615 0.983,-1.608 0.884,-1.568 0.844,-1.469 0.824,-1.416 0.817,-1.389 0.817,-1.15 0.492,-1.568 0.04,-1.642 -0.253,-1.642 c -0.691,0 -1.116,0.426 -1.116,1.057 0,0.791 0.651,0.917 1.01,0.99 l 0.565,0.12 c 0.226,0.046 0.346,0.073 0.405,0.093 0.14,0.04 0.186,0.093 0.186,0.259 0,0.565 -0.571,0.565 -0.691,0.565 -0.578,0 -0.678,-0.286 -0.737,-0.465 -0.02,-0.093 -0.054,-0.213 -0.28,-0.213 -0.246,0 -0.312,0.14 -0.312,0.259 0,0.133 0.086,0.3 0.139,0.386 0.266,0.406 0.732,0.525 1.19,0.525 0.386,0 0.784,-0.073 1.03,-0.359 C 1.362,1.309 1.362,0.97 1.362,0.645 Z"
           id="path3217"
           style="fill:#013021;fill-opacity:1;fill-rule:nonzero;stroke:none" /></g><g
         transform="translate(361.6807,303.6287)"
         id="g3219"><path
           d="m 0,0 c 0,-0.08 -0.026,-0.299 -0.306,-0.299 -0.172,0 -0.305,0.1 -0.305,0.299 v 4.181 c 0,0.08 0.033,0.292 0.305,0.292 C -0.026,4.473 0,4.261 0,4.181 Z"
           id="path3221"
           style="fill:#013021;fill-opacity:1;fill-rule:nonzero;stroke:none" /></g><g
         transform="translate(362.6452,306.2939)"
         id="g3223"><path
           d="m 0,0 h -0.352 c -0.073,0 -0.253,0.026 -0.253,0.259 0,0.239 0.18,0.26 0.253,0.26 h 0.358 v 0.777 c 0,0.086 0.027,0.286 0.3,0.286 0.286,0 0.306,-0.193 0.306,-0.286 V 0.519 h 0.411 c 0.08,0 0.253,-0.021 0.253,-0.26 C 1.276,0.026 1.096,0 1.023,0 H 0.612 v -1.688 c 0,-0.399 0.006,-0.446 0.026,-0.525 0.047,-0.193 0.173,-0.226 0.352,-0.24 0.16,-0.006 0.326,-0.019 0.326,-0.252 0,-0.233 -0.213,-0.259 -0.392,-0.259 C 0,-2.964 0,-2.466 0,-1.948 Z"
           id="path3225"
           style="fill:#013021;fill-opacity:1;fill-rule:nonzero;stroke:none" /></g><g
         transform="translate(365.0249,306.42)"
         id="g3227"><path
           d="M 0,0 C 0.239,0.319 0.665,0.459 1.057,0.459 1.688,0.459 1.934,0.133 1.987,0.06 2.2,-0.239 2.2,-0.625 2.2,-0.944 V -2.791 C 2.2,-2.845 2.187,-2.897 2.167,-2.938 2.14,-2.997 2.06,-3.09 1.894,-3.09 c -0.279,0 -0.306,0.212 -0.306,0.299 v 1.661 c 0,0.412 -0.013,0.585 -0.093,0.745 -0.153,0.285 -0.458,0.292 -0.565,0.292 -0.285,0 -0.531,-0.12 -0.684,-0.279 -0.24,-0.253 -0.253,-0.539 -0.253,-0.851 v -1.568 c 0,-0.054 -0.013,-0.106 -0.033,-0.147 -0.027,-0.059 -0.106,-0.152 -0.272,-0.152 -0.28,0 -0.306,0.212 -0.306,0.299 v 4.167 c 0,0.086 0.026,0.306 0.306,0.306 0.279,0 0.312,-0.22 0.312,-0.3 z"
           id="path3229"
           style="fill:#013021;fill-opacity:1;fill-rule:nonzero;stroke:none" /></g><g
         transform="translate(368.9135,304.6125)"
         id="g3231"><path
           d="m 0,0 c 0.087,-0.246 0.12,-0.372 0.153,-0.505 0.033,0.139 0.073,0.306 0.14,0.511 0.013,0.06 0.106,0.366 0.126,0.432 L 0.938,2.04 c 0.026,0.08 0.079,0.2 0.272,0.2 0.193,0 0.332,-0.12 0.332,-0.279 0,-0.04 0,-0.067 -0.013,-0.113 L 0.419,-1.316 C 0.2,-1.941 0.047,-2.433 -0.725,-2.433 c -0.332,0 -0.511,0.053 -0.511,0.332 0,0.08 0.02,0.18 0.08,0.213 0.04,0.02 0.08,0.027 0.113,0.027 0.04,0 0.246,-0.033 0.299,-0.033 0.153,0 0.299,0.073 0.399,0.179 0.093,0.107 0.133,0.226 0.219,0.479 l -1.21,3.057 c -0.019,0.053 -0.026,0.086 -0.026,0.133 0,0.173 0.153,0.286 0.345,0.286 0.193,0 0.253,-0.12 0.279,-0.2 z"
           id="path3233"
           style="fill:#013021;fill-opacity:1;fill-rule:nonzero;stroke:none" /></g><g
         transform="translate(373.5544,307.4903)"
         id="g3235"><path
           d="m 0,0 v -1.429 h 1.947 c 0.074,0 0.266,-0.027 0.266,-0.279 0,-0.246 -0.192,-0.273 -0.266,-0.273 H 0 v -1.874 c 0,-0.086 -0.04,-0.299 -0.319,-0.299 -0.06,0 -0.113,0.007 -0.166,0.033 -0.133,0.066 -0.153,0.166 -0.153,0.266 v 4.121 c 0,0.199 0.086,0.312 0.312,0.312 H 2.14 C 2.227,0.578 2.419,0.551 2.419,0.286 2.419,0.027 2.22,0 2.14,0 Z"
           id="path3237"
           style="fill:#013021;fill-opacity:1;fill-rule:nonzero;stroke:none" /></g><g
         transform="translate(378.4404,304.1538)"
         id="g3239"><path
           d="m 0,0 c 0.232,0.299 0.245,0.724 0.245,0.93 0,0.645 -0.212,1.29 -1.023,1.29 -0.18,0 -0.531,-0.027 -0.784,-0.379 -0.173,-0.253 -0.226,-0.605 -0.226,-0.917 0,-0.339 0.06,-0.704 0.246,-0.944 0.133,-0.166 0.392,-0.339 0.771,-0.339 0.299,0 0.591,0.12 0.771,0.359 m 0.438,-0.366 c -0.405,-0.445 -0.903,-0.485 -1.223,-0.485 -0.345,0 -0.823,0.047 -1.203,0.465 -0.412,0.452 -0.425,1.064 -0.425,1.31 0,0.319 0.033,0.877 0.412,1.309 0.412,0.459 0.964,0.499 1.249,0.499 0.978,0 1.629,-0.625 1.629,-1.762 0,-0.299 -0.033,-0.884 -0.439,-1.336"
           id="path3241"
           style="fill:#013021;fill-opacity:1;fill-rule:nonzero;stroke:none" /></g><g
         transform="translate(382.0504,304.1538)"
         id="g3243"><path
           d="m 0,0 c 0.233,0.299 0.246,0.724 0.246,0.93 0,0.645 -0.213,1.29 -1.024,1.29 -0.179,0 -0.531,-0.027 -0.784,-0.379 -0.173,-0.253 -0.226,-0.605 -0.226,-0.917 0,-0.339 0.06,-0.704 0.246,-0.944 0.133,-0.166 0.392,-0.339 0.771,-0.339 0.299,0 0.591,0.12 0.771,0.359 m 0.439,-0.366 c -0.406,-0.445 -0.904,-0.485 -1.223,-0.485 -0.346,0 -0.824,0.047 -1.203,0.465 -0.413,0.452 -0.426,1.064 -0.426,1.31 0,0.319 0.033,0.877 0.413,1.309 0.412,0.459 0.963,0.499 1.249,0.499 0.977,0 1.628,-0.625 1.628,-1.762 0,-0.299 -0.033,-0.884 -0.438,-1.336"
           id="path3245"
           style="fill:#013021;fill-opacity:1;fill-rule:nonzero;stroke:none" /></g><g
         transform="translate(385.5872,305.9416)"
         id="g3247"><path
           d="m 0,0 c -0.219,0.359 -0.545,0.419 -0.791,0.419 -0.525,0 -0.784,-0.353 -0.877,-0.818 -0.027,-0.153 -0.04,-0.305 -0.04,-0.459 0,-0.578 0.146,-1.276 0.924,-1.276 0.166,0 0.319,0.027 0.452,0.1 0.531,0.273 0.531,1.017 0.531,1.176 C 0.199,-0.585 0.166,-0.266 0,0 m 0.784,-2.32 c 0,-0.086 -0.026,-0.292 -0.299,-0.292 -0.153,0 -0.233,0.086 -0.266,0.153 -0.026,0.06 -0.026,0.113 -0.02,0.299 -0.06,-0.073 -0.133,-0.16 -0.279,-0.259 -0.239,-0.16 -0.505,-0.22 -0.784,-0.22 -1.05,0 -1.476,0.871 -1.476,1.808 0,0.844 0.372,1.768 1.436,1.768 0.711,0 1.01,-0.398 1.097,-0.511 v 1.435 c 0,0.053 0.013,0.107 0.033,0.153 0.033,0.066 0.12,0.146 0.259,0.146 0.027,0 0.087,0 0.153,-0.033 C 0.764,2.061 0.784,1.961 0.784,1.861 Z"
           id="path3249"
           style="fill:#013021;fill-opacity:1;fill-rule:nonzero;stroke:none" /></g><g
         transform="translate(354.0281,295.5709)"
         id="g3251"><path
           d="m 0,0 c -0.027,-0.093 -0.073,-0.219 -0.359,-0.219 -0.273,0 -0.332,0.113 -0.366,0.219 L -1.522,2.685 C -1.628,3.024 -1.702,3.37 -1.755,3.722 -1.808,3.31 -1.894,2.945 -1.961,2.705 L -2.699,0.014 C -2.725,-0.093 -2.772,-0.219 -3.071,-0.219 -3.357,-0.219 -3.397,-0.1 -3.43,0 l -1.349,4.168 c -0.013,0.039 -0.02,0.079 -0.02,0.119 0,0.133 0.133,0.266 0.326,0.266 0.199,0 0.266,-0.126 0.292,-0.206 L -3.29,1.529 c 0.153,-0.498 0.186,-0.698 0.206,-0.877 0.02,0.086 0.053,0.232 0.08,0.339 0.013,0.053 0.06,0.225 0.066,0.259 l 0.831,3.077 c 0.026,0.1 0.093,0.233 0.359,0.233 0.266,0 0.332,-0.127 0.359,-0.226 l 0.851,-2.945 c 0.093,-0.319 0.132,-0.551 0.159,-0.704 0.033,0.113 0.199,0.698 0.239,0.83 l 0.844,2.832 c 0.027,0.08 0.08,0.206 0.273,0.206 0.159,0 0.319,-0.106 0.319,-0.266 0,-0.04 -0.007,-0.073 -0.013,-0.106 z"
           id="path3253"
           style="fill:#013021;fill-opacity:1;fill-rule:nonzero;stroke:none" /></g><g
         transform="translate(356.3885,295.6508)"
         id="g3255"><path
           d="m 0,0 c 0,-0.053 -0.013,-0.106 -0.033,-0.146 -0.027,-0.06 -0.106,-0.153 -0.266,-0.153 -0.179,0 -0.306,0.113 -0.306,0.299 v 2.931 c 0,0.08 0.027,0.293 0.299,0.293 C -0.026,3.224 0,3.011 0,2.931 Z m -0.306,4.473 c 0.193,0 0.373,-0.133 0.373,-0.379 0,-0.225 -0.146,-0.365 -0.373,-0.365 -0.239,0 -0.372,0.159 -0.372,0.365 0,0.24 0.166,0.379 0.372,0.379"
           id="path3257"
           style="fill:#013021;fill-opacity:1;fill-rule:nonzero;stroke:none" /></g><g
         transform="translate(357.4861,298.316)"
         id="g3259"><path
           d="m 0,0 h -0.352 c -0.073,0 -0.253,0.027 -0.253,0.259 0,0.239 0.18,0.26 0.253,0.26 h 0.358 v 0.777 c 0,0.086 0.027,0.286 0.3,0.286 0.286,0 0.306,-0.193 0.306,-0.286 V 0.519 h 0.411 c 0.08,0 0.253,-0.021 0.253,-0.26 C 1.276,0.027 1.096,0 1.023,0 H 0.612 v -1.688 c 0,-0.399 0.006,-0.446 0.026,-0.525 0.047,-0.193 0.173,-0.226 0.352,-0.24 0.16,-0.006 0.326,-0.019 0.326,-0.252 0,-0.233 -0.213,-0.259 -0.392,-0.259 C 0,-2.964 0,-2.466 0,-1.947 Z"
           id="path3261"
           style="fill:#013021;fill-opacity:1;fill-rule:nonzero;stroke:none" /></g><g
         transform="translate(359.8658,298.4426)"
         id="g3263"><path
           d="M 0,0 C 0.239,0.319 0.665,0.458 1.057,0.458 1.688,0.458 1.934,0.133 1.987,0.06 2.2,-0.24 2.2,-0.625 2.2,-0.944 V -2.792 C 2.2,-2.845 2.187,-2.898 2.167,-2.938 2.14,-2.998 2.06,-3.091 1.894,-3.091 c -0.279,0 -0.306,0.213 -0.306,0.299 v 1.662 c 0,0.412 -0.013,0.585 -0.093,0.745 -0.153,0.285 -0.458,0.292 -0.565,0.292 -0.285,0 -0.531,-0.12 -0.684,-0.279 -0.24,-0.253 -0.253,-0.539 -0.253,-0.851 v -1.569 c 0,-0.053 -0.013,-0.106 -0.033,-0.146 -0.027,-0.06 -0.106,-0.153 -0.272,-0.153 -0.28,0 -0.306,0.213 -0.306,0.299 v 4.168 c 0,0.086 0.026,0.305 0.306,0.305 C -0.033,1.681 0,1.462 0,1.382 Z"
           id="path3265"
           style="fill:#013021;fill-opacity:1;fill-rule:nonzero;stroke:none" /></g><g
         transform="translate(363.19,295.6508)"
         id="g3267"><path
           d="m 0,0 c 0,-0.053 -0.014,-0.106 -0.034,-0.146 -0.026,-0.06 -0.106,-0.153 -0.265,-0.153 -0.18,0 -0.306,0.113 -0.306,0.299 v 2.931 c 0,0.08 0.027,0.293 0.299,0.293 C -0.027,3.224 0,3.011 0,2.931 Z m -0.306,4.473 c 0.193,0 0.372,-0.133 0.372,-0.379 0,-0.225 -0.146,-0.365 -0.372,-0.365 -0.239,0 -0.372,0.159 -0.372,0.365 0,0.24 0.166,0.379 0.372,0.379"
           id="path3269"
           style="fill:#013021;fill-opacity:1;fill-rule:nonzero;stroke:none" /></g><g
         transform="translate(363.7085,298.5822)"
         id="g3271"><path
           d="m 0,0 c 0,0.093 0.02,0.193 0.146,0.259 0.087,0.04 0.226,0.04 0.306,0 0.146,-0.073 0.146,-0.173 0.146,-0.439 0.273,0.366 0.618,0.499 1.07,0.499 0.359,0 0.698,-0.106 0.917,-0.379 0.226,-0.286 0.233,-0.638 0.233,-0.991 v -1.88 c 0,-0.086 -0.027,-0.299 -0.306,-0.299 -0.053,0 -0.106,0.013 -0.159,0.033 -0.126,0.067 -0.146,0.173 -0.146,0.266 v 1.568 c 0,0.353 -0.013,0.432 -0.013,0.492 0,0.18 -0.04,0.665 -0.659,0.665 -0.604,0 -0.824,-0.452 -0.89,-0.758 C 0.605,-1.137 0.611,-1.31 0.611,-1.489 v -1.442 c 0,-0.086 -0.026,-0.299 -0.305,-0.299 -0.053,0 -0.107,0.013 -0.16,0.033 C 0.02,-3.13 0,-3.031 0,-2.931 Z"
           id="path3273"
           style="fill:#013021;fill-opacity:1;fill-rule:nonzero;stroke:none" /></g><g
         transform="translate(369.9312,297.8777)"
         id="g3275"><path
           d="M 0,0 H 0.937 C 1.183,0 1.469,0 1.668,0.046 1.974,0.119 2.22,0.372 2.22,0.837 2.22,1.176 2.093,1.329 2.06,1.369 1.821,1.655 1.369,1.661 0.704,1.661 H 0 Z M 0,-0.532 V -2.227 C 0,-2.28 -0.013,-2.333 -0.034,-2.38 -0.06,-2.433 -0.14,-2.526 -0.306,-2.526 c -0.279,0 -0.312,0.213 -0.312,0.299 v 4.128 c 0,0.073 0,0.153 0.073,0.232 0.073,0.08 0.159,0.08 0.239,0.08 H 1.143 C 1.549,2.213 2.08,2.193 2.439,1.894 2.672,1.708 2.865,1.369 2.865,0.871 2.865,0.704 2.851,0.239 2.419,-0.08 2.246,-0.206 2.127,-0.233 2,-0.259 2.146,-0.273 2.372,-0.306 2.546,-0.565 2.672,-0.758 2.705,-0.984 2.738,-1.203 l 0.04,-0.266 c 0.04,-0.226 0.04,-0.246 0.08,-0.445 0.02,-0.093 0.04,-0.213 0.04,-0.293 0,-0.252 -0.146,-0.326 -0.3,-0.326 -0.185,0 -0.285,0.133 -0.358,0.379 -0.074,0.246 -0.107,0.532 -0.133,0.745 -0.12,0.844 -0.346,0.877 -1.329,0.877 z"
           id="path3277"
           style="fill:#013021;fill-opacity:1;fill-rule:nonzero;stroke:none" /></g><g
         transform="translate(375.7875,297.4456)"
         id="g3279"><path
           d="m 0,0 c -0.027,0.438 -0.266,0.924 -0.897,0.924 -0.14,0 -0.412,-0.013 -0.645,-0.22 C -1.808,0.471 -1.868,0.153 -1.901,0 Z m -1.908,-0.498 c 0.014,-0.3 0.08,-0.566 0.259,-0.785 0.226,-0.279 0.499,-0.325 0.765,-0.325 0.525,0 0.711,0.272 0.831,0.458 0.106,0.179 0.139,0.246 0.286,0.246 0.146,0 0.345,-0.087 0.345,-0.279 0,-0.027 0,-0.047 -0.007,-0.067 C 0.545,-1.376 0.432,-1.522 0.359,-1.602 -0.1,-2.12 -0.698,-2.12 -0.884,-2.12 c -0.432,0 -0.871,0.086 -1.21,0.465 -0.298,0.339 -0.439,0.817 -0.439,1.296 0,0.837 0.453,1.814 1.629,1.814 0.146,0 0.292,-0.013 0.432,-0.046 0.299,-0.073 0.558,-0.219 0.764,-0.498 0.22,-0.306 0.333,-0.738 0.333,-1.11 0,-0.28 -0.213,-0.299 -0.299,-0.299 z"
           id="path3281"
           style="fill:#013021;fill-opacity:1;fill-rule:nonzero;stroke:none" /></g><g
         transform="translate(378.2016,296.9668)"
         id="g3283"><path
           d="m 0,0 c -0.113,-0.02 -0.246,-0.053 -0.339,-0.086 -0.1,-0.034 -0.399,-0.133 -0.399,-0.505 0,-0.366 0.286,-0.552 0.618,-0.552 0.379,0 0.632,0.219 0.731,0.352 0.173,0.24 0.18,0.552 0.186,0.997 C 0.671,0.153 0.625,0.14 0.345,0.08 Z m 1.362,-1.349 c -0.007,-0.073 -0.02,-0.266 -0.266,-0.266 -0.113,0.007 -0.212,0.047 -0.252,0.146 -0.02,0.053 -0.027,0.08 -0.027,0.319 -0.325,-0.418 -0.778,-0.492 -1.07,-0.492 -0.691,0 -1.116,0.426 -1.116,1.057 0,0.791 0.651,0.918 1.01,0.99 l 0.565,0.12 c 0.226,0.047 0.345,0.073 0.405,0.093 0.14,0.04 0.186,0.093 0.186,0.259 0,0.566 -0.572,0.566 -0.691,0.566 -0.578,0 -0.678,-0.287 -0.738,-0.466 -0.02,-0.093 -0.053,-0.212 -0.279,-0.212 -0.246,0 -0.312,0.139 -0.312,0.259 0,0.132 0.086,0.299 0.139,0.385 0.266,0.405 0.731,0.525 1.19,0.525 0.386,0 0.784,-0.073 1.03,-0.359 C 1.362,1.309 1.362,0.97 1.362,0.645 Z"
           id="path3285"
           style="fill:#013021;fill-opacity:1;fill-rule:nonzero;stroke:none" /></g><g
         transform="translate(382.4154,296.4487)"
         id="g3287"><path
           d="m 0,0 c 0.047,0.126 0.107,0.259 0.286,0.259 0.08,0 0.319,-0.047 0.319,-0.279 0,-0.093 -0.04,-0.233 -0.14,-0.399 -0.106,-0.186 -0.411,-0.705 -1.355,-0.705 -1.21,0 -1.602,0.964 -1.602,1.795 0,0.266 0.033,0.525 0.12,0.771 0.358,1.01 1.269,1.01 1.515,1.01 0.771,0 1.077,-0.325 1.256,-0.618 0.14,-0.219 0.14,-0.299 0.14,-0.346 0,-0.172 -0.147,-0.292 -0.326,-0.292 -0.186,0 -0.246,0.126 -0.319,0.279 -0.066,0.133 -0.246,0.472 -0.771,0.472 -0.704,0 -0.977,-0.605 -0.977,-1.249 0,-0.572 0.173,-1.303 0.977,-1.303 0.605,0 0.778,0.392 0.877,0.605"
           id="path3289"
           style="fill:#013021;fill-opacity:1;fill-rule:nonzero;stroke:none" /></g><g
         transform="translate(384.1713,298.4426)"
         id="g3291"><path
           d="M 0,0 C 0.239,0.319 0.665,0.458 1.057,0.458 1.688,0.458 1.934,0.133 1.987,0.06 2.2,-0.24 2.2,-0.625 2.2,-0.944 V -2.792 C 2.2,-2.845 2.187,-2.898 2.167,-2.938 2.14,-2.998 2.06,-3.091 1.894,-3.091 c -0.279,0 -0.306,0.213 -0.306,0.299 v 1.662 c 0,0.412 -0.013,0.585 -0.093,0.745 -0.152,0.285 -0.458,0.292 -0.565,0.292 -0.285,0 -0.531,-0.12 -0.684,-0.279 -0.239,-0.253 -0.253,-0.539 -0.253,-0.851 v -1.569 c 0,-0.053 -0.013,-0.106 -0.033,-0.146 -0.027,-0.06 -0.106,-0.153 -0.272,-0.153 -0.279,0 -0.306,0.213 -0.306,0.299 v 4.168 c 0,0.086 0.027,0.305 0.306,0.305 C -0.033,1.681 0,1.462 0,1.382 Z"
           id="path3293"
           style="fill:#013021;fill-opacity:1;fill-rule:nonzero;stroke:none" /></g></g></g><g
     transform="matrix(3.3155729,0,0,-3.3155729,121.05668,30.54019)"
     id="g3295"><path
       d="m 0,0 c -0.469,0.444 -1.041,0.796 -1.694,1.016 -2.33,0.786 -4.843,-0.395 -5.756,-2.643 -0.114,0.048 -0.229,0.098 -0.348,0.137 -1.325,0.447 -2.717,0.196 -3.776,-0.554 0.513,-3.113 0.919,-5.632 1.407,-8.585 0.027,0.027 2.053,0.927 4.605,0.542 0.024,0.7 -0.088,1.03 -0.19,1.706 1.111,0.895 1.707,1.301 2.872,1.111 0.596,1.815 1.95,5.31 2.88,7.27"
       id="path3297"
       style="fill:#40bb61;fill-opacity:1;fill-rule:nonzero;stroke:none" /></g><g
     transform="matrix(3.3155729,0,0,-3.3155729,121.0222,30.551463)"
     id="g3299"><path
       d="m 0,0 c -0.47,0.445 -1.041,0.796 -1.694,1.016 -2.33,0.786 -4.844,-0.395 -5.756,-2.643 -0.114,0.048 -0.229,0.098 -0.348,0.137 -1.326,0.447 -2.717,0.196 -3.776,-0.554 0.513,-3.112 0.919,-5.632 1.406,-8.585 0.028,0.027 2.053,0.927 4.606,0.542 0.024,0.701 -0.067,1.032 -0.169,1.708 1.173,0.935 1.643,1.264 2.851,1.11 C -2.284,-5.454 -0.93,-1.96 0,0"
       id="path3301"
       style="fill:#40bb61;fill-opacity:1;fill-rule:nonzero;stroke:none" /></g><g
     transform="matrix(3.3155729,0,0,-3.3155729,150.41575,52.240283)"
     id="g3303"><path
       d="m 0,0 c 0.651,1.658 1.417,2.128 1.706,2.333 1.236,0.796 2.924,0.88 4.182,1.229 0.535,5.694 -0.305,9.664 -3.555,10.532 -0.386,0.104 -0.769,0.154 -1.149,0.154 -1.281,0 -2.521,-0.578 -3.711,-1.613 0.553,-0.597 1.789,-2.088 1.966,-3.683 -0.904,1.427 -2.055,2.379 -2.785,2.89 -0.612,-0.652 -1.209,-1.423 -1.79,-2.3 0.236,-0.261 2.855,-3.208 3.124,-5.695 -1.23,2.025 -2.802,3.6 -3.852,4.532 -0.609,-1.033 -1.198,-2.18 -1.768,-3.42 0.846,-0.934 3.102,-3.63 3.403,-6.089 -1.608,2.484 -3.3,3.797 -4.161,4.357 -0.684,-1.639 -1.339,-3.424 -1.954,-5.289 0.084,-0.223 0.192,-0.789 0.072,-1.38 0.916,-0.066 1.641,-0.278 2.411,-0.76 0.727,-0.453 1.266,-0.988 2.086,-2.14 -1.115,-1.67 -1.586,-1.851 -1.971,-2.098 0.524,-1.026 0.952,-1.935 1.115,-3.822 0.988,0.133 1.35,0.036 1.603,0.006 C -3.783,-9.193 -1.737,-4.2 0,0"
       id="path3305"
       style="fill:#f47216;fill-opacity:1;fill-rule:nonzero;stroke:none" /></g><g
     transform="matrix(3.3155729,0,0,-3.3155729,68.345362,71.725574)"
     id="g3307"><path
       d="M 0,0 C 0,0 2.463,2.986 -0.768,4.931 0.276,5.212 1.969,4.656 2.239,2.836 2.491,0.481 0,0 0,0 m -2.168,12.871 c 1.044,0.28 2.737,-0.276 3.007,-2.095 C 1.092,8.42 -1.4,7.939 -1.4,7.939 c 0,0 2.463,2.986 -0.768,4.932 M 0.748,-2.864 c 1.194,2.656 3.503,3.936 3.503,3.936 0,0 -2.331,14.689 -2.331,14.689 L 1.917,15.783 C 1.915,15.787 1.914,15.791 1.911,15.798 1.899,15.83 1.871,15.89 1.793,15.969 1.642,16.12 1.252,16.397 0.2,16.445 c -2.207,0.092 -8.606,0.474 -9.512,0.529 -0.01,-0.003 -0.021,-0.006 -0.033,-0.01 -0.073,-0.022 -0.173,-0.063 -0.261,-0.118 -0.178,-0.131 -0.285,-0.21 -0.309,-0.563 10e-4,-0.292 0.195,-2.119 0.481,-4.512 0.291,-2.455 0.68,-5.59 1.069,-8.679 0.206,-1.64 0.412,-3.265 0.604,-4.768 2.005,0.409 3.252,-0.452 3.252,-0.452 l -1.776,14.96 c -0.038,0.317 0.19,0.606 0.507,0.643 0.318,0.038 0.606,-0.189 0.643,-0.506 l 1.907,-16.068 c 0,0 0.251,-0.241 0.377,-0.398 1.901,1.007 3.354,0.677 3.599,0.633 m -15.352,16.115 c 0.176,-2.074 0.325,-3.117 0.325,-3.117 0,0 -0.146,-0.615 1.385,-1.007 0.656,-0.168 1.304,-0.307 1.832,-0.411 -0.803,-0.52 -1.859,-1.37 -2.389,-2.504 0.177,-2.073 0.29,-3.097 0.29,-3.097 0,0 0.098,-0.72 1.385,-1.007 0.725,-0.162 1.434,-0.309 1.984,-0.421 -0.449,-0.223 -1.779,-0.955 -2.692,-2.092 1.923,-0.367 2.815,-1.537 3.147,-1.778 0.03,0.006 0.056,0.006 0.072,0.012 -0.28,2.275 -1.939,15.762 -2.262,18.299 -0.753,-0.395 -2.382,-1.386 -3.077,-2.877"
       id="path3309"
       style="fill:#6243a4;fill-opacity:1;fill-rule:nonzero;stroke:none" /></g><g
     transform="matrix(3.3155729,0,0,-3.3155729,161.71223,144.2597)"
     id="g3463"><path
       d="m 0,0 v -3.874 h 3.002 c 1.304,0.011 2.202,0.756 2.208,1.935 -0.015,1.383 -0.904,1.912 -2.564,1.938 z m -6.068,-12.676 c -0.793,-0.01 -1.454,0.315 -1.727,1.069 l -0.833,2.377 h -5.24 l -0.85,-2.375 c -0.238,-0.73 -0.831,-1.071 -1.653,-1.071 -0.018,0 -0.036,0 -0.054,0 -0.509,0 -0.958,0.16 -1.277,0.46 -0.322,0.298 -0.504,0.733 -0.503,1.237 0.004,0.437 0.22,1.038 0.347,1.383 l 4.426,11.714 0.18,-0.068 -0.18,0.069 c 0.306,0.844 0.981,1.183 1.851,1.168 h 0.814 c 0.796,0.018 1.633,-0.239 2.019,-1.381 l 4.134,-11.502 c 0.127,-0.345 0.342,-0.946 0.346,-1.383 -0.003,-0.954 -0.827,-1.695 -1.8,-1.697 m -12.533,2.323 c 0,-0.703 -0.15,-1.289 -0.522,-1.703 -0.372,-0.415 -0.944,-0.621 -1.696,-0.62 -0.033,0 -0.066,-10e-4 -0.099,-10e-4 -1.034,0 -1.518,0.308 -1.943,1.01 l -5.637,8.901 v -8.067 c 0,-0.588 -0.17,-1.061 -0.5,-1.379 -0.33,-0.318 -0.799,-0.465 -1.342,-0.464 -0.544,-10e-4 -1.012,0.146 -1.342,0.464 -0.331,0.318 -0.501,0.791 -0.501,1.379 V 1.089 c 0,0.737 0.181,1.305 0.591,1.678 0.409,0.371 0.999,0.52 1.753,0.52 0.757,0.003 1.466,-0.3 1.876,-0.989 l 5.678,-9.16 v 8.306 c -0.001,0.588 0.169,1.061 0.5,1.379 0.33,0.318 0.798,0.465 1.342,0.464 0.544,10e-4 1.012,-0.146 1.342,-0.464 0.332,-0.318 0.501,-0.791 0.5,-1.379 z m 27.453,9.856 1.879,10.678 c -0.152,0.029 -0.307,0.041 -0.463,0.041 -0.725,0 -1.47,-0.274 -2.046,-0.547 C 7.648,9.401 7.242,9.127 7.199,9.127 c -0.002,0 -0.004,10e-4 -0.004,0.002 0,-10e-4 0,-10e-4 0,-10e-4 -0.022,0 -1.234,1.938 -2.952,2.256 -0.142,0.026 -0.286,0.038 -0.431,0.038 -1.525,0 -3.157,-1.325 -3.124,-1.331 -0.036,0.006 -1.09,2.058 -2.851,2.475 l 10e-4,0.005 c -0.014,0.002 -0.029,0.003 -0.044,0.006 -0.014,0.003 -0.027,0.007 -0.043,0.009 L -2.25,12.583 c -0.13,0.017 -0.26,0.025 -0.389,0.025 -0.821,0 -1.6,-0.329 -2.18,-0.658 -0.579,-0.328 -0.958,-0.657 -0.977,-0.657 0.03,0 -1.229,2.179 -2.857,2.481 -0.178,0.033 -0.357,0.047 -0.536,0.047 -0.768,0 -1.518,-0.274 -2.079,-0.547 -0.562,-0.275 -0.935,-0.549 -0.949,-0.549 -10e-4,0 0,0.001 0,0.002 0,-10e-4 -10e-4,-10e-4 -0.002,-10e-4 -0.065,0 -1.324,1.935 -2.926,2.231 -0.149,0.028 -0.299,0.04 -0.449,0.04 -0.707,0 -1.403,-0.279 -1.932,-0.558 -0.528,-0.279 -0.889,-0.558 -0.926,-0.558 -0.002,0 -0.002,10e-4 -0.003,10e-4 10e-4,0 10e-4,-10e-4 0,-10e-4 -0.022,0 -1.235,1.938 -2.953,2.256 -0.141,0.026 -0.285,0.038 -0.43,0.038 -1.525,0 -3.156,-1.324 -3.124,-1.33 -0.035,0.006 -1.09,2.058 -2.851,2.474 l 10e-4,0.005 c -0.015,0.002 -0.029,0.003 -0.043,0.006 -0.015,0.003 -0.029,0.007 -0.043,0.01 l -0.001,-0.004 c -0.131,0.017 -0.261,0.026 -0.391,0.026 -0.82,0 -1.599,-0.329 -2.179,-0.658 -0.579,-0.329 -0.959,-0.658 -0.978,-0.658 0.032,0.001 -1.228,2.179 -2.856,2.481 -0.178,0.033 -0.358,0.048 -0.537,0.048 -0.767,0 -1.518,-0.274 -2.079,-0.548 -0.562,-0.274 -0.935,-0.549 -0.948,-0.549 -0.001,0 -0.001,10e-4 0,0.002 -0.001,-0.001 -0.001,-0.001 -0.003,-0.001 -0.068,0 -1.343,1.958 -2.921,2.25 L -43.904,2.045 c 0.113,0.087 0.228,0.173 0.349,0.251 1.18,0.758 2.71,1.073 4.189,1.075 2.725,-0.018 5.97,-1.482 6.018,-3.701 -10e-4,-0.985 -0.855,-1.549 -1.758,-1.55 -0.908,0.003 -1.284,0.651 -1.783,1.177 -0.51,0.536 -1.153,1.049 -2.707,1.057 -1.538,-0.016 -2.265,-0.669 -2.27,-1.583 0.003,-0.435 0.243,-0.707 0.661,-0.942 0.415,-0.228 0.988,-0.373 1.527,-0.497 l 2.86,-0.648 c 3.204,-0.71 4.093,-2.698 4.076,-4.51 0.002,-1.405 -0.536,-2.655 -1.61,-3.537 -1.074,-0.882 -2.666,-1.396 -4.763,-1.397 -4.4,0.005 -6.469,2.208 -6.478,3.994 0.001,0.934 0.705,1.611 1.633,1.613 1.051,-0.003 1.449,-0.785 1.97,-1.429 0.537,-0.656 1.192,-1.277 2.875,-1.286 1.708,0.007 2.56,0.925 2.563,1.791 -0.015,0.541 -0.211,1.087 -1.317,1.378 l -3.862,0.982 c -1.678,0.417 -2.65,1.133 -3.195,1.958 L -47.134,-16.3 c -0.379,-2.051 -0.073,-3.792 2.725,-4.346 l 44.484,-8.125 c 0.238,-0.045 0.473,-0.066 0.706,-0.066 1.733,0 3.274,1.181 3.608,2.989 L 8.07,-4.942 C 7.925,-5.133 7.77,-5.317 7.595,-5.484 6.664,-6.372 5.306,-6.892 3.607,-6.892 H 0 v -3.878 c 0.001,-0.553 -0.183,-1.036 -0.521,-1.376 -0.336,-0.34 -0.818,-0.53 -1.38,-0.53 h -0.004 c -0.564,-10e-4 -1.048,0.189 -1.384,0.53 -0.339,0.34 -0.522,0.823 -0.521,1.376 V 0.818 c -0.002,0.793 0.21,1.361 0.612,1.718 0.404,0.356 0.956,0.479 1.585,0.479 H 3.628 C 5.1,3.015 6.444,2.654 7.43,1.844 8.116,1.282 8.61,0.499 8.852,-0.497 m -21.836,-5.966 h 3.476 l -1.701,5.286 z"
       id="path3465"
       style="fill:#024d36;fill-opacity:1;fill-rule:nonzero;stroke:none" /></g><g
     transform="matrix(3.3155729,0,0,-3.3155729,124.8918,73.272288)"
     id="g3467"><path
       d="M 0,0 C -0.495,0.645 -1.539,1.385 -2.799,1.388 -4.541,1.391 -4.875,0.609 -4.9,0.639 c 0.414,1.051 0.993,2.633 0.799,3.142 -0.273,0.72 -1.128,0.06 -1.128,0.06 0,0 0.199,-1.229 -0.115,-3.037 -0.129,0.097 -0.324,0.193 -0.647,0.28 -3.518,0.954 -7.299,-0.701 -8.894,-4.086 0.467,-0.285 0.963,-0.677 1.458,-1.229 0.945,0.483 1.852,0.727 2.7,0.727 0.255,0 0.506,-0.023 0.747,-0.067 1.066,-0.198 2.096,-0.789 3.029,-1.732 0.856,0.412 1.686,0.621 2.468,0.621 0.261,0 0.518,-0.024 0.766,-0.069 1.23,-0.228 2.224,-0.973 2.985,-1.743 0.092,0.043 0.182,0.073 0.273,0.111 0,0.008 0.001,0.016 0.001,0.024 -0.021,1.876 -0.787,3.69 -2.037,5.177 C -1.325,-1.137 -0.49,-0.67 0,0"
       id="path3469"
       style="fill:#c02123;fill-opacity:1;fill-rule:nonzero;stroke:none" /></g><g
     transform="matrix(3.3155729,0,0,-3.3155729,189.75104,68.297603)"
     id="g3471"><path
       d="m 0,0 -9.332,3.829 -0.23,0.097 c 0.463,1.13 0.914,1.315 2.66,1.707 l 3.646,0.776 2.389,-3.281 C 0.257,1.445 0.464,1.13 0,0 m -10.296,-8.635 0.015,-0.003 0.02,-0.005 c -0.011,0.003 -0.023,0.005 -0.035,0.008 M 5.763,3.213 3.299,6.825 C 3.434,7.17 3.6,7.581 3.747,7.911 4.072,8.631 3.192,8.707 3.192,8.707 l -4.716,0.331 c 0,0 -0.746,0.087 -1.07,-0.756 C -2.679,8.061 -2.777,7.81 -2.879,7.548 L -6.981,6.612 C -9.211,6.231 -9.787,5.876 -10.39,4.406 l -5.061,-12.334 c 0.566,-0.318 1.115,-0.766 1.641,-1.349 0.925,0.473 1.837,0.712 2.718,0.712 0.209,0 0.418,-0.014 0.621,-0.041 l 0.038,-10e-4 0.038,-0.007 c 0.046,-0.008 0.092,-0.018 0.138,-0.03 h 10e-4 l 0.04,-0.01 c 0.774,-0.183 1.825,-0.656 2.875,-1.824 0.944,0.483 1.852,0.727 2.7,0.727 0.106,0 0.211,-0.006 0.315,-0.014 l 2.77,5.769 -1.844,-5.946 c 0.908,-0.275 1.78,-0.832 2.58,-1.652 0.94,0.426 1.825,0.643 2.635,0.643 0.266,0 0.528,-0.024 0.779,-0.07 l 0.118,-0.022 4.179,10.187 c 0.604,1.471 0.335,1.88 -1.128,4.069"
       id="path3473"
       style="fill:#00adef;fill-opacity:1;fill-rule:nonzero;stroke:none" /></g><g
     transform="matrix(3.3155729,0,0,-3.3155729,6.6697385,85.996794)"
     id="g3475"><path
       d="m 0,0 c 0.135,-0.083 0.333,-0.153 0.542,-0.153 0.309,0 0.49,0.164 0.49,0.4 0,0.219 -0.126,0.344 -0.442,0.465 -0.382,0.136 -0.618,0.334 -0.618,0.664 0,0.364 0.303,0.635 0.757,0.635 0.24,0 0.414,-0.055 0.518,-0.114 L 1.164,1.65 C 1.087,1.692 0.931,1.761 0.719,1.761 0.399,1.761 0.278,1.57 0.278,1.41 0.278,1.191 0.42,1.084 0.743,0.959 1.139,0.806 1.341,0.615 1.341,0.271 c 0,-0.361 -0.268,-0.677 -0.82,-0.677 -0.226,0 -0.472,0.069 -0.597,0.152 z"
       id="path3477"
       style="fill:#024d36;fill-opacity:1;fill-rule:nonzero;stroke:none" /></g><g
     transform="matrix(3.3155729,0,0,-3.3155729,19.025221,83.807853)"
     id="g3479"><path
       d="m 0,0 c -0.017,0.326 -0.038,0.719 -0.035,1.011 h -0.01 C -0.125,0.736 -0.222,0.441 -0.34,0.121 l -0.414,-1.135 h -0.229 l -0.379,1.115 c -0.111,0.33 -0.205,0.632 -0.271,0.91 H -1.64 C -1.647,0.719 -1.664,0.326 -1.685,-0.025 l -0.062,-1.003 h -0.289 l 0.164,2.341 h 0.385 l 0.4,-1.133 c 0.097,-0.288 0.177,-0.545 0.236,-0.788 h 0.01 c 0.059,0.236 0.143,0.493 0.247,0.788 l 0.417,1.133 H 0.208 L 0.354,-1.028 H 0.059 Z"
       id="path3481"
       style="fill:#024d36;fill-opacity:1;fill-rule:nonzero;stroke:none" /></g></svg>
